<?xml version="1.0" standalone="no"?>
<!DOCTYPE svg PUBLIC "-//W3C//DTD SVG 20010904//EN"
 "http://www.w3.org/TR/2001/REC-SVG-20010904/DTD/svg10.dtd">
<svg version="1.0" xmlns="http://www.w3.org/2000/svg"
 width="2048.000000pt" height="2048.000000pt" viewBox="0 0 2048.000000 2048.000000"
 preserveAspectRatio="xMidYMid meet">

<g transform="translate(0.000000,2048.000000) scale(0.100000,-0.100000)"
fill="#000000" stroke="none">
<path d="M4260 2415 l0 -615 90 0 90 0 0 265 0 265 113 0 c150 0 229 14 307
53 77 38 132 104 156 186 22 72 15 199 -13 262 -42 94 -143 166 -263 189 -29
5 -149 10 -266 10 l-214 0 0 -615z m493 431 c56 -27 87 -74 94 -140 10 -101
-39 -182 -125 -206 -20 -5 -92 -10 -159 -10 l-123 0 0 191 0 191 138 -4 c107
-3 145 -8 175 -22z"/>
<path d="M9060 2814 l0 -216 -32 9 c-18 4 -85 8 -148 8 -110 0 -119 -2 -181
-32 -39 -19 -84 -52 -109 -79 -196 -212 -112 -604 146 -684 58 -17 93 -20 275
-20 l209 0 0 615 0 615 -80 0 -80 0 0 -216z m-37 -347 l37 -16 0 -262 0 -262
-129 5 c-117 4 -133 7 -174 32 -72 42 -100 98 -105 212 -7 150 38 241 142 291
42 20 63 23 121 20 39 -2 87 -11 108 -20z"/>
<path d="M10550 2415 l0 -615 355 0 355 0 0 80 0 80 -267 0 -268 0 3 190 3
190 249 0 250 0 0 80 0 80 -250 0 -250 0 0 185 0 185 260 0 260 0 0 80 0 80
-350 0 -350 0 0 -615z"/>
<path d="M6728 2623 c-82 -82 -148 -152 -148 -156 0 -4 32 -7 70 -7 l70 0 0
-225 c0 -123 5 -247 11 -274 14 -67 44 -109 103 -146 47 -28 55 -30 150 -30
82 0 110 5 149 22 l47 22 0 70 c0 39 -1 71 -2 71 -2 0 -25 -8 -53 -19 -110
-41 -186 -36 -222 17 -16 24 -18 54 -21 260 l-3 232 131 0 131 0 -3 71 -3 71
-125 1 -125 2 -5 83 -5 82 -147 -147z"/>
<path d="M15278 2624 c-82 -79 -148 -148 -148 -154 0 -6 28 -10 70 -10 l70 0
0 -244 c0 -267 6 -305 58 -359 47 -50 99 -70 187 -74 64 -3 93 1 144 19 l65
23 0 72 c1 40 -2 73 -5 73 -4 0 -26 -9 -50 -19 -67 -30 -139 -37 -178 -16 -55
28 -61 58 -61 305 l0 220 125 0 125 0 0 73 0 72 -125 -3 -124 -3 -3 84 -3 85
-147 -144z"/>
<path d="M17260 2530 c0 -127 2 -150 15 -150 12 0 15 14 15 70 l0 70 75 0 75
0 0 -70 c0 -63 2 -70 20 -70 19 0 20 7 20 150 0 142 -1 150 -20 150 -16 0 -19
-8 -22 -62 l-3 -63 -70 0 -70 0 -3 63 c-2 46 -7 62 -17 62 -13 0 -15 -26 -15
-150z"/>
<path d="M17550 2530 c0 -127 2 -150 15 -150 13 0 15 20 15 122 l0 122 73
-119 c53 -88 79 -121 95 -123 22 -3 22 -2 22 147 0 147 -1 151 -21 151 -20 0
-21 -4 -18 -121 2 -66 0 -115 -4 -107 -98 167 -141 228 -158 228 -18 0 -19 -9
-19 -150z"/>
<path d="M6165 2596 c-27 -12 -64 -35 -82 -50 l-32 -27 -3 42 -3 41 -80 0 -80
0 -3 -401 -2 -401 85 0 85 0 0 293 0 293 38 36 c93 92 233 90 287 -2 19 -33
20 -55 23 -327 l3 -293 86 0 85 0 -5 293 c-5 334 -11 370 -78 442 -57 62 -112
85 -201 85 -55 0 -85 -6 -123 -24z"/>
<path d="M9559 2606 c-116 -41 -209 -149 -238 -276 -13 -57 -13 -182 0 -239
25 -110 112 -227 202 -270 123 -60 333 -46 461 30 l36 21 0 81 c0 76 -1 79
-18 64 -9 -9 -48 -30 -85 -47 -80 -38 -198 -51 -271 -30 -85 24 -157 107 -172
199 l-7 41 287 0 286 0 0 38 c0 54 -26 168 -50 217 -32 67 -86 121 -152 154
-55 28 -70 31 -152 31 -50 -1 -107 -7 -127 -14z m218 -147 c47 -23 86 -78 97
-136 l6 -33 -205 0 -205 0 20 51 c10 29 29 63 42 77 56 61 166 79 245 41z"/>
<path d="M11615 2596 c-27 -12 -64 -35 -82 -50 l-32 -27 -3 43 -3 43 -80 0
-80 0 -3 -402 -2 -403 85 0 85 0 0 293 0 293 38 36 c98 96 238 90 290 -12 21
-43 22 -54 22 -327 l0 -283 85 0 85 0 0 233 c0 262 -12 391 -39 446 -23 45
-91 108 -137 127 -54 23 -170 18 -229 -10z"/>
<path d="M12347 2596 c-137 -57 -216 -166 -237 -328 -30 -243 84 -427 299
-478 70 -16 219 -8 291 16 l55 19 3 79 c3 72 1 78 -15 71 -114 -50 -229 -63
-307 -36 -98 34 -166 138 -166 257 0 97 23 158 80 215 83 82 191 91 320 25
l71 -36 -3 87 -3 87 -65 23 c-94 33 -242 32 -323 -1z"/>
<path d="M13853 2599 c-77 -30 -146 -97 -189 -184 -32 -65 -37 -86 -42 -168
-2 -52 0 -116 7 -146 25 -118 111 -235 204 -280 123 -59 342 -45 465 31 32 20
32 20 32 100 0 77 -1 80 -18 65 -9 -9 -48 -30 -86 -48 -81 -38 -195 -50 -271
-29 -86 24 -151 102 -170 203 l-7 37 286 0 286 0 0 38 c0 54 -26 168 -50 217
-32 67 -86 121 -152 154 -55 28 -70 31 -152 30 -66 0 -105 -6 -143 -20z m234
-140 c47 -23 86 -78 97 -136 l6 -33 -205 0 -205 0 20 51 c10 29 29 63 42 77
56 61 166 79 245 41z"/>
<path d="M14711 2600 c-23 -11 -60 -34 -81 -50 l-39 -31 -3 42 -3 41 -78 1
-77 2 0 -402 0 -403 80 0 80 0 0 290 0 289 30 35 c84 95 236 102 294 14 26
-39 36 -151 36 -395 l0 -233 80 0 80 0 0 253 c0 138 -5 283 -10 321 -17 115
-72 193 -165 232 -51 21 -170 18 -224 -6z"/>
<path d="M16067 2590 c-26 -16 -66 -56 -89 -89 -24 -33 -46 -60 -50 -60 -5 -1
-8 36 -8 82 l0 82 -77 -2 -78 -1 -3 -401 -2 -401 79 0 79 0 4 248 c4 271 7
286 68 356 41 46 78 66 125 66 38 0 103 -28 124 -54 22 -27 34 -18 74 50 44
75 43 78 -38 125 -71 41 -143 40 -208 -1z"/>
<path d="M5073 2593 c-3 -7 -3 -142 -1 -300 5 -312 11 -349 63 -417 40 -52
133 -96 206 -96 73 0 153 29 207 76 l42 36 0 -46 0 -46 80 0 80 0 0 399 0 399
-76 4 c-42 2 -78 1 -80 -1 -2 -2 -4 -133 -4 -291 0 -327 3 -314 -88 -367 -38
-22 -59 -28 -109 -28 -73 0 -107 20 -138 81 -18 36 -20 63 -23 324 l-4 285
-75 0 c-51 0 -77 -4 -80 -12z"/>
<path d="M7478 2599 c-113 -26 -235 -127 -286 -236 -24 -52 -27 -70 -27 -168
0 -99 3 -116 27 -168 80 -170 229 -256 425 -245 147 9 261 70 335 179 73 107
88 263 38 392 -43 112 -168 218 -291 246 -53 13 -170 12 -221 0z m217 -153
c49 -21 111 -81 137 -134 29 -61 31 -179 4 -232 -34 -65 -67 -100 -119 -127
-71 -37 -179 -39 -249 -4 -212 103 -186 444 39 507 54 15 137 11 188 -10z"/>
<path d="M12844 2596 c-11 -30 3 -589 16 -631 47 -149 208 -223 363 -165 29
11 72 36 95 56 l42 36 0 -46 0 -46 80 0 80 0 0 403 0 402 -77 -2 -78 -2 -5
-295 -5 -294 -25 -27 c-83 -89 -240 -96 -295 -12 -25 39 -36 163 -35 402 l1
230 -75 3 c-61 2 -77 0 -82 -12z"/>
<path d="M16595 2596 c-121 -29 -243 -133 -286 -243 -26 -68 -32 -221 -11
-290 35 -115 149 -226 270 -263 216 -67 450 29 541 220 23 49 26 67 26 170 0
108 -2 119 -31 180 -35 73 -99 144 -165 183 -90 53 -231 71 -344 43z m223
-152 c47 -19 108 -78 134 -128 66 -128 8 -305 -120 -367 -94 -46 -232 -26
-310 45 -61 54 -92 166 -73 259 22 103 97 183 194 208 42 11 130 2 175 -17z"/>
</g>
</svg>
